<svg width="38" height="38" viewBox="0 0 38 38" fill="none" xmlns="http://www.w3.org/2000/svg">
<path d="M9.37917 37C11.126 28.4716 13.5468 22.6127 16.0713 18.7036M16.0713 18.7036C18.0087 15.7038 20.007 13.8523 21.8087 12.824M16.0713 18.7036C17.7773 19.0105 19.5693 19.0078 21.4149 18.595C25.0107 17.7908 26.9834 16.4783 27.777 15.2175M16.0713 18.7036C1.3528 16.0555 -6.95809 -9.64566 12.0243 6.03812C15.7651 9.12885 19.0098 11.3233 21.8087 12.824M21.8087 12.824C26.171 10.3343 29.3801 12.6705 27.777 15.2175M21.8087 12.824C24.0836 14.0438 26.064 14.8054 27.777 15.2175M27.777 15.2175C33.5039 16.5954 36.2416 14.0677 37 11.7005" stroke="#FBFAFF"/>
</svg>
